<?xml version="1.0" encoding="iso-8859-1"?>
<!-- Generator: Adobe Illustrator 19.0.0, SVG Export Plug-In . SVG Version: 6.00 Build 0)  -->
<svg version="1.1" id="Capa_1" xmlns="http://www.w3.org/2000/svg" xmlns:xlink="http://www.w3.org/1999/xlink" x="0px" y="0px"
	 viewBox="0 0 512.007 512.007" style="enable-background:new 0 0 512.007 512.007;" xml:space="preserve">
<circle style="fill:#E6EFF4;" cx="256.003" cy="256.003" r="256.003"/>
<path style="fill:#B6D1DD;" d="M511.851,247.677L348.984,84.809c-1.225-1.358-2.522-2.659-3.893-3.893l-0.072-0.072l-0.003,0.003
	c-4.635-4.157-10.071-7.577-16.205-9.99c-27.602-10.855-58.777,2.721-69.632,30.323c-2.29,5.825-3.655,15.838-4.384,28.002
	l-28.242-28.242l-0.069,0.069c-11.739-10.371-27.615-14.005-41.454-7.98c-19.957,8.691-28.108,34.17-18.207,56.908
	c5.257,12.072,29.435,39.769,50.962,63.099c-1.183,0.951-2.325,1.949-3.429,2.988c-25.707-26.056-58.385-57.07-73.87-63.159
	c-27.602-10.855-58.777,2.721-69.632,30.323c-7.988,20.312-2.734,42.55,11.593,57.21l-0.014,0.014l33.622,33.622
	c-21.121,10.515-31.405,33.696-23.027,52.935c2.401,5.513,6.087,10.12,10.639,13.7l45.688,45.688
	c-1.473,16.309,4.646,32.392,16.342,43.601l-0.017,0.017l81.874,81.874c2.805,0.091,5.617,0.153,8.443,0.154
	c141.385,0,256-114.615,256-256.001C512,253.213,511.94,250.441,511.851,247.677z"/>
<g>
	<path style="fill:#82BE50;" d="M359.134,140.489c-10.855,27.602-100.901,109.832-100.901,109.832s-9.909-121.539,0.946-149.141
		c10.855-27.602,42.03-41.177,69.632-30.323C356.413,81.712,369.989,112.887,359.134,140.489z"/>
	<path style="fill:#82BE50;" d="M252.821,410.821c10.855-27.602,0.946-149.141,0.946-149.141s-90.045,82.23-100.901,109.832
		c-10.856,27.602,2.721,58.777,30.323,69.632S241.965,438.423,252.821,410.821z"/>
	<path style="fill:#82BE50;" d="M371.511,359.134c-27.602-10.855-109.832-100.901-109.832-100.901s121.539-9.909,149.141,0.946
		c27.602,10.855,41.177,42.03,30.323,69.632C430.288,356.413,399.113,369.989,371.511,359.134z"/>
	<path style="fill:#82BE50;" d="M101.18,252.821c27.602,10.855,149.141,0.946,149.141,0.946s-82.23-90.045-109.832-100.901
		c-27.602-10.856-58.777,2.721-69.632,30.323S73.578,241.965,101.18,252.821z"/>
</g>
<path style="fill:#FA870A;" d="M118.465,272.904c22.738-9.902,132.388-14.663,132.388-14.663s-78.177,77.033-100.916,86.934
	s-48.216,1.75-56.907-18.207C84.339,307.012,95.727,282.806,118.465,272.904z"/>
<g>
	<path style="fill:#82BE50;" d="M362.062,166.825c-22.738,9.902-100.916,86.934-100.916,86.934s109.65-4.761,132.388-14.663
		c22.738-9.902,34.126-34.107,25.436-54.065S384.801,156.923,362.062,166.825z"/>
	<path style="fill:#82BE50;" d="M239.097,118.465c9.902,22.738,14.663,132.388,14.663,132.388s-77.033-78.177-86.934-100.916
		c-9.902-22.738-1.75-48.216,18.207-56.907S229.194,95.727,239.097,118.465z"/>
	<path style="fill:#82BE50;" d="M345.175,362.062c-9.902-22.738-86.934-100.916-86.934-100.916s4.761,109.65,14.663,132.388
		c9.902,22.738,34.108,34.126,54.065,25.436C346.926,410.279,355.077,384.801,345.175,362.062z"/>
</g>
<circle style="fill:#FFE65A;" cx="254.101" cy="258.241" r="57.992"/>
<g>
</g>
<g>
</g>
<g>
</g>
<g>
</g>
<g>
</g>
<g>
</g>
<g>
</g>
<g>
</g>
<g>
</g>
<g>
</g>
<g>
</g>
<g>
</g>
<g>
</g>
<g>
</g>
<g>
</g>
</svg>
